<mxfile host="Electron" modified="2024-03-20T14:54:09.988Z" agent="Mozilla/5.0 (Windows NT 10.0; Win64; x64) AppleWebKit/537.36 (KHTML, like Gecko) draw.io/23.1.5 Chrome/120.0.6099.109 Electron/28.1.0 Safari/537.36" etag="uAuKOU0o0U7aRV8_slj0" version="23.1.5" type="device">
  <diagram name="Pagina-1" id="lwQXwPUkHgRn11qqD6Tu">
    <mxGraphModel dx="1035" dy="626" grid="1" gridSize="10" guides="1" tooltips="1" connect="1" arrows="1" fold="1" page="1" pageScale="1" pageWidth="827" pageHeight="1169" math="0" shadow="0">
      <root>
        <mxCell id="0" />
        <mxCell id="1" parent="0" />
        <mxCell id="JQizXquvwRR9FBAccU-V-22" style="edgeStyle=orthogonalEdgeStyle;rounded=0;orthogonalLoop=1;jettySize=auto;html=1;entryX=0;entryY=0.5;entryDx=0;entryDy=0;" edge="1" parent="1" source="JQizXquvwRR9FBAccU-V-1" target="JQizXquvwRR9FBAccU-V-4">
          <mxGeometry relative="1" as="geometry" />
        </mxCell>
        <mxCell id="JQizXquvwRR9FBAccU-V-23" style="edgeStyle=orthogonalEdgeStyle;rounded=0;orthogonalLoop=1;jettySize=auto;html=1;entryX=0;entryY=0.5;entryDx=0;entryDy=0;" edge="1" parent="1" source="JQizXquvwRR9FBAccU-V-1" target="JQizXquvwRR9FBAccU-V-5">
          <mxGeometry relative="1" as="geometry" />
        </mxCell>
        <mxCell id="JQizXquvwRR9FBAccU-V-24" style="edgeStyle=orthogonalEdgeStyle;rounded=0;orthogonalLoop=1;jettySize=auto;html=1;entryX=0;entryY=0.5;entryDx=0;entryDy=0;" edge="1" parent="1" source="JQizXquvwRR9FBAccU-V-1" target="JQizXquvwRR9FBAccU-V-6">
          <mxGeometry relative="1" as="geometry" />
        </mxCell>
        <mxCell id="JQizXquvwRR9FBAccU-V-38" style="edgeStyle=orthogonalEdgeStyle;rounded=0;orthogonalLoop=1;jettySize=auto;html=1;entryX=0;entryY=0.5;entryDx=0;entryDy=0;endArrow=doubleBlock;endFill=1;" edge="1" parent="1" source="JQizXquvwRR9FBAccU-V-1" target="JQizXquvwRR9FBAccU-V-30">
          <mxGeometry relative="1" as="geometry" />
        </mxCell>
        <mxCell id="JQizXquvwRR9FBAccU-V-1" value="Libro" style="rounded=0;whiteSpace=wrap;html=1;" vertex="1" parent="1">
          <mxGeometry x="110" y="220" width="120" height="60" as="geometry" />
        </mxCell>
        <mxCell id="JQizXquvwRR9FBAccU-V-25" style="edgeStyle=orthogonalEdgeStyle;rounded=0;orthogonalLoop=1;jettySize=auto;html=1;entryX=0;entryY=0.5;entryDx=0;entryDy=0;" edge="1" parent="1" source="JQizXquvwRR9FBAccU-V-2" target="JQizXquvwRR9FBAccU-V-11">
          <mxGeometry relative="1" as="geometry" />
        </mxCell>
        <mxCell id="JQizXquvwRR9FBAccU-V-26" style="edgeStyle=orthogonalEdgeStyle;rounded=0;orthogonalLoop=1;jettySize=auto;html=1;entryX=0;entryY=0.5;entryDx=0;entryDy=0;" edge="1" parent="1" source="JQizXquvwRR9FBAccU-V-2" target="JQizXquvwRR9FBAccU-V-12">
          <mxGeometry relative="1" as="geometry" />
        </mxCell>
        <mxCell id="JQizXquvwRR9FBAccU-V-27" style="edgeStyle=orthogonalEdgeStyle;rounded=0;orthogonalLoop=1;jettySize=auto;html=1;entryX=0;entryY=0.5;entryDx=0;entryDy=0;" edge="1" parent="1" source="JQizXquvwRR9FBAccU-V-2" target="JQizXquvwRR9FBAccU-V-13">
          <mxGeometry relative="1" as="geometry" />
        </mxCell>
        <mxCell id="JQizXquvwRR9FBAccU-V-32" style="edgeStyle=orthogonalEdgeStyle;rounded=0;orthogonalLoop=1;jettySize=auto;html=1;entryX=1;entryY=0.5;entryDx=0;entryDy=0;endArrow=doubleBlock;endFill=1;" edge="1" parent="1" source="JQizXquvwRR9FBAccU-V-2" target="JQizXquvwRR9FBAccU-V-31">
          <mxGeometry relative="1" as="geometry" />
        </mxCell>
        <mxCell id="JQizXquvwRR9FBAccU-V-2" value="Utente" style="rounded=0;whiteSpace=wrap;html=1;" vertex="1" parent="1">
          <mxGeometry x="827" y="220" width="120" height="60" as="geometry" />
        </mxCell>
        <mxCell id="JQizXquvwRR9FBAccU-V-28" style="edgeStyle=orthogonalEdgeStyle;rounded=0;orthogonalLoop=1;jettySize=auto;html=1;entryX=0;entryY=0.5;entryDx=0;entryDy=0;" edge="1" parent="1" source="JQizXquvwRR9FBAccU-V-3" target="JQizXquvwRR9FBAccU-V-17">
          <mxGeometry relative="1" as="geometry" />
        </mxCell>
        <mxCell id="JQizXquvwRR9FBAccU-V-29" style="edgeStyle=orthogonalEdgeStyle;rounded=0;orthogonalLoop=1;jettySize=auto;html=1;entryX=0;entryY=0.5;entryDx=0;entryDy=0;" edge="1" parent="1" source="JQizXquvwRR9FBAccU-V-3" target="JQizXquvwRR9FBAccU-V-18">
          <mxGeometry relative="1" as="geometry" />
        </mxCell>
        <mxCell id="JQizXquvwRR9FBAccU-V-33" style="edgeStyle=orthogonalEdgeStyle;rounded=0;orthogonalLoop=1;jettySize=auto;html=1;entryX=0;entryY=0.5;entryDx=0;entryDy=0;" edge="1" parent="1" source="JQizXquvwRR9FBAccU-V-3" target="JQizXquvwRR9FBAccU-V-31">
          <mxGeometry relative="1" as="geometry" />
        </mxCell>
        <mxCell id="JQizXquvwRR9FBAccU-V-39" style="edgeStyle=orthogonalEdgeStyle;rounded=0;orthogonalLoop=1;jettySize=auto;html=1;entryX=1;entryY=0.5;entryDx=0;entryDy=0;" edge="1" parent="1" source="JQizXquvwRR9FBAccU-V-3" target="JQizXquvwRR9FBAccU-V-30">
          <mxGeometry relative="1" as="geometry" />
        </mxCell>
        <mxCell id="JQizXquvwRR9FBAccU-V-3" value="Prestito" style="rounded=0;whiteSpace=wrap;html=1;" vertex="1" parent="1">
          <mxGeometry x="480" y="220" width="120" height="60" as="geometry" />
        </mxCell>
        <mxCell id="JQizXquvwRR9FBAccU-V-4" value="" style="ellipse;whiteSpace=wrap;html=1;aspect=fixed;" vertex="1" parent="1">
          <mxGeometry x="200" y="300" width="30" height="30" as="geometry" />
        </mxCell>
        <mxCell id="JQizXquvwRR9FBAccU-V-5" value="" style="ellipse;whiteSpace=wrap;html=1;aspect=fixed;" vertex="1" parent="1">
          <mxGeometry x="200" y="340" width="30" height="30" as="geometry" />
        </mxCell>
        <mxCell id="JQizXquvwRR9FBAccU-V-6" value="" style="ellipse;whiteSpace=wrap;html=1;aspect=fixed;" vertex="1" parent="1">
          <mxGeometry x="200" y="380" width="30" height="30" as="geometry" />
        </mxCell>
        <mxCell id="JQizXquvwRR9FBAccU-V-8" value="Titolo" style="text;html=1;align=center;verticalAlign=middle;whiteSpace=wrap;rounded=0;" vertex="1" parent="1">
          <mxGeometry x="220" y="300" width="60" height="30" as="geometry" />
        </mxCell>
        <mxCell id="JQizXquvwRR9FBAccU-V-9" value="Anno pubblicazione" style="text;html=1;align=center;verticalAlign=middle;whiteSpace=wrap;rounded=0;" vertex="1" parent="1">
          <mxGeometry x="230" y="340" width="120" height="30" as="geometry" />
        </mxCell>
        <mxCell id="JQizXquvwRR9FBAccU-V-10" value="Disponibilita" style="text;html=1;align=center;verticalAlign=middle;whiteSpace=wrap;rounded=0;" vertex="1" parent="1">
          <mxGeometry x="210" y="380" width="120" height="30" as="geometry" />
        </mxCell>
        <mxCell id="JQizXquvwRR9FBAccU-V-11" value="" style="ellipse;whiteSpace=wrap;html=1;aspect=fixed;" vertex="1" parent="1">
          <mxGeometry x="907" y="300" width="30" height="30" as="geometry" />
        </mxCell>
        <mxCell id="JQizXquvwRR9FBAccU-V-12" value="" style="ellipse;whiteSpace=wrap;html=1;aspect=fixed;" vertex="1" parent="1">
          <mxGeometry x="907" y="340" width="30" height="30" as="geometry" />
        </mxCell>
        <mxCell id="JQizXquvwRR9FBAccU-V-13" value="" style="ellipse;whiteSpace=wrap;html=1;aspect=fixed;" vertex="1" parent="1">
          <mxGeometry x="907" y="380" width="30" height="30" as="geometry" />
        </mxCell>
        <mxCell id="JQizXquvwRR9FBAccU-V-14" value="Nome" style="text;html=1;align=center;verticalAlign=middle;whiteSpace=wrap;rounded=0;" vertex="1" parent="1">
          <mxGeometry x="937" y="300" width="60" height="30" as="geometry" />
        </mxCell>
        <mxCell id="JQizXquvwRR9FBAccU-V-15" value="Cognome" style="text;html=1;align=center;verticalAlign=middle;whiteSpace=wrap;rounded=0;" vertex="1" parent="1">
          <mxGeometry x="947" y="340" width="60" height="30" as="geometry" />
        </mxCell>
        <mxCell id="JQizXquvwRR9FBAccU-V-16" value="Email" style="text;html=1;align=center;verticalAlign=middle;whiteSpace=wrap;rounded=0;" vertex="1" parent="1">
          <mxGeometry x="937" y="380" width="60" height="30" as="geometry" />
        </mxCell>
        <mxCell id="JQizXquvwRR9FBAccU-V-17" value="" style="ellipse;whiteSpace=wrap;html=1;aspect=fixed;" vertex="1" parent="1">
          <mxGeometry x="570" y="300" width="30" height="30" as="geometry" />
        </mxCell>
        <mxCell id="JQizXquvwRR9FBAccU-V-18" value="" style="ellipse;whiteSpace=wrap;html=1;aspect=fixed;" vertex="1" parent="1">
          <mxGeometry x="570" y="340" width="30" height="30" as="geometry" />
        </mxCell>
        <mxCell id="JQizXquvwRR9FBAccU-V-20" value="Data prestito" style="text;html=1;align=center;verticalAlign=middle;whiteSpace=wrap;rounded=0;" vertex="1" parent="1">
          <mxGeometry x="600" y="300" width="80" height="30" as="geometry" />
        </mxCell>
        <mxCell id="JQizXquvwRR9FBAccU-V-21" value="Data ritorno" style="text;html=1;align=center;verticalAlign=middle;whiteSpace=wrap;rounded=0;" vertex="1" parent="1">
          <mxGeometry x="600" y="340" width="80" height="30" as="geometry" />
        </mxCell>
        <mxCell id="JQizXquvwRR9FBAccU-V-30" value="Preso" style="rhombus;whiteSpace=wrap;html=1;" vertex="1" parent="1">
          <mxGeometry x="320" y="210" width="80" height="80" as="geometry" />
        </mxCell>
        <mxCell id="JQizXquvwRR9FBAccU-V-31" value="PuÃ² prendere" style="rhombus;whiteSpace=wrap;html=1;" vertex="1" parent="1">
          <mxGeometry x="690" y="210" width="80" height="80" as="geometry" />
        </mxCell>
        <mxCell id="JQizXquvwRR9FBAccU-V-37" value="" style="endArrow=none;html=1;rounded=0;" edge="1" parent="1">
          <mxGeometry width="50" height="50" relative="1" as="geometry">
            <mxPoint x="820" y="280" as="sourcePoint" />
            <mxPoint x="820" y="225" as="targetPoint" />
          </mxGeometry>
        </mxCell>
        <mxCell id="JQizXquvwRR9FBAccU-V-40" value="" style="endArrow=none;html=1;rounded=0;" edge="1" parent="1">
          <mxGeometry width="50" height="50" relative="1" as="geometry">
            <mxPoint x="270" y="275" as="sourcePoint" />
            <mxPoint x="270" y="220" as="targetPoint" />
          </mxGeometry>
        </mxCell>
        <mxCell id="JQizXquvwRR9FBAccU-V-41" value="" style="endArrow=none;html=1;rounded=0;" edge="1" parent="1">
          <mxGeometry width="50" height="50" relative="1" as="geometry">
            <mxPoint x="890" y="425" as="sourcePoint" />
            <mxPoint x="890" y="370" as="targetPoint" />
          </mxGeometry>
        </mxCell>
        <mxCell id="JQizXquvwRR9FBAccU-V-42" value="" style="endArrow=none;html=1;rounded=0;" edge="1" parent="1">
          <mxGeometry width="50" height="50" relative="1" as="geometry">
            <mxPoint x="550" y="380" as="sourcePoint" />
            <mxPoint x="550" y="325" as="targetPoint" />
          </mxGeometry>
        </mxCell>
      </root>
    </mxGraphModel>
  </diagram>
</mxfile>
